<svg version="1.1" viewBox="0.0 0.0 169.05774278215222 100.0" fill="none" stroke="none" stroke-linecap="square" stroke-miterlimit="10" xmlns:xlink="http://www.w3.org/1999/xlink" xmlns="http://www.w3.org/2000/svg"><clipPath id="p.0"><path d="m0 0l169.05774 0l0 100.0l-169.05774 0l0 -100.0z" clip-rule="nonzero"/></clipPath><g clip-path="url(#p.0)"><path fill="#000000" fill-opacity="0.0" d="m0 0l169.05774 0l0 100.0l-169.05774 0z" fill-rule="evenodd"/><path fill="#000000" fill-opacity="0.0" d="m0 5.3569555l507.62204 0l0 59.2126l-507.62204 0z" fill-rule="evenodd"/><path fill="#1c4587" d="m11.015625 19.15508l3.609375 0l0 11.203125l6.65625 0l0 -11.203125l3.625 0l0 25.921877l-3.625 0l0 -12.125l-6.65625 0l0 12.125l-3.609375 0l0 -25.921877zm24.577042 26.203127q-3.8125 0 -5.46875 -2.15625q-1.640625 -2.15625 -1.640625 -6.25l0 -9.828127q0 -4.03125 1.65625 -6.109375q1.671875 -2.078125 5.453125 -2.078125q3.78125 0 5.421875 2.09375q1.65625 2.09375 1.65625 6.09375l0 9.859377q0 4.03125 -1.671875 6.203125q-1.65625 2.171875 -5.40625 2.171875zm0 -2.84375q2.015625 0 2.71875 -1.171875q0.703125 -1.1875 0.703125 -3.59375l0 -11.359377q0 -2.375 -0.703125 -3.5q-0.703125 -1.140625 -2.71875 -1.140625q-2.046875 0 -2.75 1.140625q-0.703125 1.125 -0.703125 3.5l0 11.359377q0 2.40625 0.703125 3.59375q0.703125 1.171875 2.75 1.171875zm11.044907 -23.359377l3.546875 0l4.578125 21.031252l4.609375 -21.031252l3.515625 0l0.484375 25.921877l-2.921875 0l-0.28125 -18.812502l-4.390625 18.812502l-2.046875 0l-4.34375 -18.812502l-0.296875 18.812502l-2.9375 0l0.484375 -25.921877zm20.698166 0l10.046875 0l0 2.6875l-6.4375 0l0 8.578125l5.21875 0l0 2.562502l-5.21875 0l0 9.5l6.5 0l0 2.59375l-10.109375 0l0 -25.921877z" fill-rule="nonzero"/><path fill="#000000" fill-opacity="0.0" d="m1.5748032E-4 33.55643l507.62204 0l0 59.212597l-507.62204 0z" fill-rule="evenodd"/><path fill="#274e13" d="m11.015782 47.354557l3.609375 0l0 11.203125l6.656251 0l0 -11.203125l3.625 0l0 25.921871l-3.625 0l0 -12.124996l-6.656251 0l0 12.124996l-3.609375 0l0 -25.921871zm22.045792 0l3.484375 0l5.546875 25.921871l-3.421875 0l-1.1875 -6.53125l-5.28125 0l-1.2499981 6.53125l-3.390625 0l5.499998 -25.921871zm3.9375 16.796871l-2.171875 -11.671871l-2.140625 11.671871l4.3125 0zm8.134659 -16.796871l3.546875 0l4.578125 21.031246l4.609375 -21.031246l3.515625 0l0.484375 25.921871l-2.921875 0l-0.28125 -18.812496l-4.390625 18.812496l-2.046875 0l-4.34375 -18.812496l-0.296875 18.812496l-2.9375 0l0.484375 -25.921871zm21.120045 0l3.546875 0l4.578125 21.031246l4.609375 -21.031246l3.515625 0l0.484375 25.921871l-2.921875 0l-0.28125 -18.812496l-4.390625 18.812496l-2.046875 0l-4.34375 -18.812496l-0.296875 18.812496l-2.9375 0l0.484375 -25.921871zm27.323166 26.203121q-3.8125 0 -5.46875 -2.15625q-1.640625 -2.15625 -1.640625 -6.25l0 -9.828121q0 -4.03125 1.65625 -6.109375q1.671875 -2.078125 5.453125 -2.078125q3.78125 0 5.421875 2.09375q1.65625 2.09375 1.65625 6.09375l0 9.859371q0 4.03125 -1.671875 6.203125q-1.65625 2.171875 -5.40625 2.171875zm0 -2.84375q2.015625 0 2.71875 -1.171875q0.703125 -1.1875 0.703125 -3.59375l0 -11.359371q0 -2.375 -0.703125 -3.5q-0.703125 -1.140625 -2.71875 -1.140625q-2.046875 0 -2.75 1.140625q-0.703125 1.125 -0.703125 3.5l0 11.359371q0 2.40625 0.703125 3.59375q0.703125 1.171875 2.75 1.171875zm17.123032 2.84375q-3.84375 0 -5.421875 -2.28125q-1.5625 -2.28125 -1.5625 -6.3125l0 -9.156246q0 -4.265625 1.53125 -6.46875q1.546875 -2.203125 5.453125 -2.203125q3.484375 0 5.0 1.890625q1.53125 1.875 1.53125 5.5625l0 2.046875l-3.4375 0l0 -1.828125q0 -1.78125 -0.15625 -2.734375q-0.15625 -0.96875 -0.8125 -1.546875q-0.65625 -0.578125 -2.09375 -0.578125q-1.46875 0 -2.203125 0.625q-0.71875 0.625 -0.9375 1.734375q-0.21875 1.09375 -0.21875 2.953125l0 10.265621q0 1.984375 0.3125 3.109375q0.328125 1.125 1.046875 1.609375q0.71875 0.46875 2.0 0.46875q1.375 0 2.046875 -0.609375q0.671875 -0.609375 0.84375 -1.65625q0.171875 -1.0625 0.171875 -2.890625l0 -1.9062462l3.4375 0l0 1.9062462q0 3.875 -1.46875 5.9375q-1.453125 2.0625 -5.0625 2.0625zm9.980026 -26.203121l3.609375 0l0 12.21875l5.9531174 -12.21875l3.359375 0l-5.109375 11.421875l5.953125 14.499996l-3.53125 0l-4.9531174 -12.156246l-1.671875 2.9999962l0 9.15625l-3.609375 0l0 -25.921871z" fill-rule="nonzero"/><path fill="#000000" fill-opacity="0.0" d="m76.74016 7.742782E-4l507.622 0l0 59.212597l-507.622 0z" fill-rule="evenodd"/><path fill="#000000" d="m90.72453 21.52515q-0.15625 -0.171875 -0.28125 -0.578125q-0.125 -0.40625 0 -0.40625q0.1875 -0.015625 0.4375 -0.40625q0.265625 -0.40625 0.234375 -0.671875q0 -0.09375 0.0625 -0.171875q0.078125 -0.09375 0.171875 -0.109375q0.203125 -0.125 0.34375 -0.125q0.40625 0 0.75 0.578125q0.140625 0.3125 0.140625 0.546875q0 0.21875 -0.125 0.453125q-0.125 0.21875 -0.4375 0.578125q-0.40625 0.5625 -0.765625 0.5625q-0.234375 0 -0.53125 -0.25zm-2.328125 9.75q-0.328125 -0.34375 -0.328125 -0.96875q0 -0.328125 0.125 -0.5625q0 -0.125 0.046875 -0.296875q0.046875 -0.171875 0.046875 -0.21875q-0.03125 -0.140625 0.1875 -0.78125q0.4375 -0.96875 1.15625 -3.390625q0 -0.125 0.09375 -0.203125q0.09375 -0.078125 0.28125 -0.109375q0.203125 -0.046875 0.265625 -0.046875q0.15625 0 0.25 0.109375q0.109375 0.109375 0.3125 0.390625q0.140625 0.140625 0.140625 0.4375q0 0.453125 -0.3125 1.109375q-0.3125 0.6875 -0.40625 1.1875q-0.296875 0.65625 -0.453125 1.203125q-0.046875 0.140625 -0.15625 0.578125q-0.09375 0.4375 -0.265625 0.703125q-0.140625 0.671875 -0.265625 0.9375q-0.109375 0.25 -0.25 0.25q-0.171875 0 -0.46875 -0.328125zm5.6911163 0.859375q-0.421875 -0.171875 -0.84375 -0.484375q-0.40625 -0.328125 -0.546875 -0.5625q0 -0.0625 0 -0.171875q0 -0.125 0.0625 -0.15625q0.078125 -0.03125 0.28125 -0.03125q0.40625 0 1.296875 0.09375q0.515625 0 1.1875 -0.125q0.671875 -0.140625 0.75 -0.3125q0.078125 0 0.078125 -0.03125q0 -0.046875 -0.203125 -0.234375q-0.046875 0 -0.21875 -0.078125q-0.15625 -0.09375 -0.203125 -0.09375q0 -0.09375 -0.21875 -0.25q-0.21875 -0.15625 -0.484375 -0.265625q-0.6875 -0.578125 -0.984375 -0.859375q-0.28125 -0.28125 -0.21875 -0.390625l0 -0.125q-0.15625 0 -0.359375 -0.46875q-0.203125 -0.46875 -0.203125 -0.875q0 -0.4375 0.359375 -1.203125q0.375 -0.765625 0.859375 -1.25q0.671875 -0.625 1.734375 -1.3125q1.078125 -0.703125 1.703125 -0.890625q0.40625 -0.171875 0.8125 -0.171875q0.375 0 0.640625 0.171875q0.3125 0.1875 0.609375 0.546875q0.3125 0.359375 0.40625 0.65625q0 0.53125 -0.109375 1.03125q-0.109375 0.484375 -0.328125 0.484375q-0.015625 0 -0.078125 0.03125q-0.046875 0.015625 -0.046875 0.109375q0 0.09375 -0.09375 0.25q-0.09375 0.15625 -0.265625 0.296875q-0.515625 0.390625 -0.859375 0.390625q-0.265625 0 -0.328125 -0.265625q-0.0625 -0.046875 -0.109375 -0.140625q-0.046875 -0.109375 -0.109375 -0.109375q-0.03125 0 -0.09375 -0.078125q-0.046875 -0.078125 -0.046875 -0.234375q0 -0.0625 0.046875 -0.140625q0.0625 -0.09375 0.09375 -0.109375q0.140625 0 0.46875 -0.5625q0.34375 -0.578125 0.34375 -0.765625q0 -0.140625 -0.046875 -0.15625q-0.03125 -0.03125 -0.21875 -0.03125q-1.875 0.84375 -2.328125 1.265625q-0.078125 0.140625 -0.109375 0.203125q-0.03125 0.046875 -0.125 0.046875q0 -0.21875 -1.28125 1.625q-0.046875 0.046875 -0.109375 0.296875q-0.046875 0.234375 -0.046875 0.40625q-0.0625 0.1875 -0.0625 0.203125q0 0.109375 0.078125 0.203125q0.09375 0.09375 0.234375 0.203125q0.15625 0.109375 0.296875 0.21875q1.25 0.9375 1.734375 1.40625q0.5 0.46875 0.59375 0.78125q0.3125 0.484375 0.3125 0.859375q0 0.296875 -0.21875 0.515625q-0.21875 0.203125 -0.640625 0.40625q-0.265625 0.109375 -0.890625 0.1875q-0.625 0.09375 -1.234375 0.09375q-0.328125 0 -0.71875 -0.046875zm18.335709 -0.234375q-0.515625 -0.296875 -0.734375 -0.890625q-0.203125 -0.59375 -0.203125 -1.84375l0 -1.15625q-0.0625 0.078125 -0.28125 0.375q-0.21875 0.296875 -0.53125 0.78125q-0.5 0.9375 -1.0625 1.59375q-0.546875 0.65625 -0.828125 0.75q-0.265625 0.09375 -0.859375 -0.109375q-0.578125 -0.203125 -0.671875 -0.46875q-0.0625 -0.1875 -0.0625 -0.59375q0 -0.671875 0.078125 -1.453125q0.09375 -0.78125 0.234375 -1.015625q0 -0.046875 0.03125 -0.15625q0.046875 -0.109375 -0.03125 -0.1875q0.171875 -0.546875 0.65625 -2.078125q0.484375 -1.546875 0.625 -1.90625q0 -0.140625 0.0625 -0.375q0.0625 -0.25 0.0625 -0.34375q0 -0.09375 0.0625 -0.21875q0.078125 -0.140625 0.171875 -0.234375q0.125 -0.09375 0.28125 -0.09375q0.15625 0 0.3125 0.140625q0.171875 0.125 0.21875 0.171875q0.171875 0.140625 0.265625 0.28125q0.09375 0.140625 0.09375 0.296875q0 0.109375 -0.09375 0.40625q-0.09375 0.28125 -0.265625 0.671875q-0.328125 0.71875 -0.640625 1.625q-0.3125 0.890625 -0.40625 1.328125q0 0.109375 -0.0625 0.296875q-0.0625 0.171875 -0.0625 0.28125q-0.09375 0.09375 -0.09375 0.359375q0 0.09375 -0.078125 0.328125q-0.078125 0.234375 -0.078125 0.484375q-0.015625 0.0625 -0.015625 0.21875q0 0.328125 0.265625 0.328125q0.09375 0 0.15625 -0.015625q0.0625 -0.03125 0.109375 -0.046875q0.0625 -0.078125 0.3125 -0.34375q0.265625 -0.265625 0.421875 -0.5q0.09375 -0.296875 0.28125 -0.453125q0.1875 -0.15625 0.1875 -0.359375q0 -0.109375 0.296875 -0.515625q0.296875 -0.40625 0.421875 -0.578125l0.625 -1.09375q0.109375 -0.265625 0.328125 -0.5q0.046875 -0.078125 0.1875 -0.28125q0.15625 -0.203125 0.25 -0.453125q0.015625 -0.046875 0.0625 -0.15625q0.046875 -0.125 0.140625 -0.15625q0.109375 -0.046875 0.265625 -0.046875q0.3125 0 0.40625 0.0625q0.109375 0.046875 0.171875 0.296875q0.171875 0.171875 0.203125 0.328125q0.046875 0.15625 0.046875 0.375q-0.078125 0.078125 -0.109375 0.203125q-0.015625 0.109375 -0.015625 0.15625q-0.03125 0.140625 -0.109375 0.484375q-0.078125 0.328125 -0.234375 0.640625q-0.1875 0.796875 -0.3125 1.71875q-0.109375 0.90625 -0.109375 1.546875q0 0.8125 0.1875 0.8125q0.296875 0 1.46875 -1.796875q0.09375 -0.140625 0.484375 -0.609375q0.40625 -0.46875 0.546875 -0.78125q0 -0.125 0.21875 -0.546875q0.328125 -0.65625 0.359375 -0.984375q-0.03125 -0.03125 0.25 -0.5q0.296875 -0.46875 0.484375 -0.921875q0.09375 -0.375 0.359375 -0.609375q0.265625 -0.25 0.53125 -0.25q0.40625 0 0.34375 0.484375q-0.203125 1.140625 -0.953125 2.84375q-0.75 1.703125 -1.625 3.046875q-0.1875 0.15625 -0.328125 0.390625q-0.140625 0.234375 -0.140625 0.34375q0 0.0625 -0.4375 0.421875q-0.4375 0.34375 -0.859375 0.625q-0.359375 0.296875 -0.65625 0.296875q-0.1875 0 -0.578125 -0.171875zm14.954834 -0.390625q-0.3125 0.09375 -0.53125 0.09375q-0.15625 0 -0.3125 -0.078125q-0.15625 -0.078125 -0.40625 -0.328125q-0.0625 -0.09375 -0.25 -0.34375q-0.171875 -0.25 -0.265625 -0.546875q-0.078125 -0.3125 -0.078125 -0.765625q0 -0.328125 0.015625 -0.5625q0.03125 -0.25 0.046875 -0.390625l0.0625 -0.703125q0.15625 -0.734375 0.15625 -1.3125q0 -0.65625 -0.15625 -0.65625q-0.375 -0.0625 -1.59375 1.078125q-1.21875 1.140625 -2.65625 2.796875l-0.4375 0.625q-0.046875 0.0625 -0.25 0.328125q-0.1875 0.265625 -0.25 0.265625q-0.265625 0.015625 -0.734375 -0.25q-0.453125 -0.28125 -0.46875 -0.5q0 -0.140625 0.375 -1.328125q0.375 -1.1875 0.578125 -1.859375l1.0625 -3.125q0.1875 -0.59375 0.703125 -1.796875l0.453125 -1.171875l0.28125 -0.71875l1.109375 -2.9375l0 -0.09375q0 -0.40625 0.171875 -0.578125l0.328125 -0.015625q0 -0.046875 0.1875 0.109375q0.203125 0.15625 0.375 0.359375q0.1875 0.203125 0.1875 0.328125q0.0625 0.15625 0.0625 0.375q0 0.546875 -0.546875 1.890625q-0.21875 0.3125 -0.65625 1.515625q-0.234375 0.671875 -0.359375 0.9375q-0.28125 0.53125 -1.0 2.171875q-0.703125 1.640625 -0.984375 2.703125q-0.1875 0.453125 -0.1875 0.671875q0 0.125 0.0625 0.125q0.171875 0 0.53125 -0.46875q1.515625 -1.59375 2.421875 -2.40625q0.921875 -0.828125 1.46875 -0.78125q0.28125 0.078125 0.703125 0.546875q0.421875 0.46875 0.59375 0.890625q0.140625 0.53125 0.140625 0.984375q0 0.40625 -0.078125 1.5l-0.046875 0.546875q-0.1875 1.203125 -0.1875 1.390625q0 0.21875 0.0625 0.3125q0.0625 0.09375 0.25 0.265625q0.390625 0.3125 0.390625 0.53125q0 0.1875 -0.34375 0.375zm4.8490906 0.609375q-1.03125 0 -1.703125 -0.765625q-0.671875 -0.78125 -0.671875 -1.921875q0 -1.15625 0.515625 -2.53125q0.515625 -1.390625 1.328125 -2.484375q0.8125 -1.109375 1.65625 -1.5q0.484375 -0.265625 1.078125 -0.265625q0.46875 0 1.03125 0.265625q0.421875 0.171875 0.625 0.421875q0.21875 0.234375 0.390625 0.734375q0.078125 0.4375 0.078125 0.59375q0 0.15625 -0.125 0.625q-0.296875 0.890625 -0.765625 1.515625q-0.453125 0.609375 -1.203125 1.03125q-0.390625 0.25 -0.96875 0.25q-0.5 0 -0.953125 -0.171875q-0.4375 -0.1875 -0.671875 -0.5625l-0.171875 -0.1875l-0.0625 0.1875q-0.515625 1.296875 -0.515625 2.21875q0 0.625 0.25 1.0q0.171875 0.265625 0.8125 0.265625q0.484375 0 0.703125 -0.09375q0.359375 -0.125 0.625 -0.296875q0.28125 -0.1875 0.546875 -0.375l0.09375 -0.046875l-0.03125 0q0.296875 -0.140625 0.484375 -0.265625q0.1875 -0.125 0.265625 -0.171875q0.046875 0 0.09375 -0.015625q0.046875 -0.03125 0.09375 -0.09375q0.21875 -0.09375 0.5 0.078125q0.296875 0.15625 0.296875 0.421875q-0.046875 0.1875 -0.4375 0.625q-0.375 0.421875 -0.578125 0.453125q-0.015625 0 -0.15625 0.078125q-0.140625 0.0625 -0.203125 0.109375l0.03125 0q-0.21875 0.296875 -0.4375 0.296875l-0.1875 0q-0.09375 0.1875 -0.640625 0.390625q-0.53125 0.1875 -1.015625 0.1875zm1.078125 -5.28125q0.71875 0 1.328125 -0.828125q0.578125 -0.765625 0.578125 -1.53125q0 -0.40625 -0.171875 -0.578125q-0.140625 -0.0625 -0.265625 -0.0625q-0.125 0 -0.40625 0.0625q-0.3125 0.078125 -0.96875 0.671875q-0.640625 0.578125 -0.953125 1.03125l-0.3125 0.515625q0.1875 -0.078125 0.359375 -0.09375q0.1875 -0.015625 0.21875 0.046875q0 0.328125 0.15625 0.546875q0.171875 0.21875 0.4375 0.21875zm4.8780975 4.359375q-0.203125 -0.140625 -0.28125 -0.25q-0.0625 -0.125 -0.0625 -0.375q0 -0.21875 0.03125 -0.359375q0.0625 -0.8125 0.359375 -1.890625l0.125 -0.484375q0.0625 -0.59375 0.828125 -2.515625q0.765625 -1.921875 1.25 -2.625q0.1875 -0.109375 0.40625 -0.109375q0.3125 0 0.53125 0.21875q0.140625 0.09375 0.140625 0.359375q0 0.234375 -0.1875 0.703125q-0.171875 0.46875 -0.59375 1.375q-0.109375 0.203125 -0.34375 0.734375q-0.21875 0.515625 -0.21875 0.609375q0 0.046875 0.03125 0.046875q0.046875 0 0.09375 -0.03125q0.046875 -0.03125 0.09375 -0.0625q0.265625 -0.453125 1.28125 -1.234375q1.03125 -0.796875 1.40625 -1.0q0.171875 -0.09375 0.4375 -0.1875q0.265625 -0.09375 0.359375 -0.140625q0.375 -0.1875 0.90625 -0.1875q0.34375 0 0.59375 0.109375q0.25 0.09375 0.34375 0.3125q0.03125 0.171875 0.125 0.265625q0.109375 0.09375 0.171875 0.125q0.0625 0 0.078125 0.0625q0.03125 0.0625 0.03125 0.078125q0 0.171875 -0.1875 0.203125q-0.1875 0.03125 -0.703125 0.0625q-0.265625 0.015625 -0.546875 0.125q-0.28125 0.09375 -0.578125 0.234375q-1.34375 0.765625 -2.0 1.203125q-0.65625 0.421875 -1.328125 1.171875q-0.265625 0.28125 -0.703125 1.03125q-0.171875 0.171875 -0.359375 0.875q-0.171875 0.703125 -0.171875 0.875q-0.015625 0.078125 -0.09375 0.28125q-0.0625 0.203125 -0.21875 0.390625q-0.28125 0.390625 -0.46875 0.390625q-0.21875 0 -0.578125 -0.390625zm9.858719 0.265625q-0.765625 -0.3125 -1.078125 -0.796875q-0.3125 -0.5 -0.3125 -1.390625q0 -0.421875 0.078125 -1.0l0.046875 -0.859375q0 -0.21875 -0.046875 -0.34375q-0.046875 -0.125 -0.21875 -0.265625q-0.046875 -0.046875 -0.25 -0.234375q-0.1875 -0.1875 -0.15625 -0.3125l-0.03125 -0.125q0 -0.171875 0.0625 -0.3125q0.0625 -0.140625 0.125 -0.140625q0.078125 0 0.1875 -0.03125q0.125 -0.046875 0.234375 -0.015625q0.328125 0 0.328125 0.140625q0.09375 0.1875 0.3125 0.03125q0.234375 -0.15625 0.453125 -0.609375q0.34375 -0.53125 1.0 -1.109375q0.65625 -0.59375 1.09375 -0.828125q0.171875 -0.09375 0.546875 -0.171875q0.390625 -0.09375 0.671875 -0.09375q0.4375 0 0.75 0.203125q0.328125 0.1875 0.671875 0.546875q0.453125 0.328125 0.453125 1.046875q0 0.5 -0.234375 1.03125q-0.109375 0.359375 -0.765625 0.921875q-0.65625 0.546875 -1.203125 0.765625q-0.671875 0.15625 -1.546875 0.15625q-0.5625 0 -0.734375 -0.09375q-0.296875 -0.15625 -0.40625 1.296875q-0.03125 0.171875 -0.03125 0.453125q0 0.421875 0.125 0.65625q0.015625 0.015625 0.15625 0.171875q0.15625 0.15625 0.359375 0.265625q0.21875 0.109375 0.46875 0.109375q0.21875 0 0.328125 -0.046875q0.265625 -0.0625 0.5 -0.265625q0.25 -0.21875 0.6875 -0.640625q0.375 -0.390625 0.546875 -0.53125q0.125 -0.21875 0.484375 -0.21875q0.09375 0 0.328125 0.046875q0.21875 0.171875 0.21875 0.359375q0 0.203125 -0.234375 0.71875q-0.125 0.25 -0.59375 0.671875q-0.46875 0.40625 -0.828125 0.65625q-0.75 0.40625 -1.484375 0.40625q-0.453125 0 -1.0625 -0.21875zm1.421875 -4.875q0.234375 -0.046875 0.6875 -0.109375q0.453125 -0.078125 0.75 -0.328125q0.3125 -0.25 0.71875 -0.875q0.078125 -0.1875 0.078125 -0.390625q0 -0.359375 -0.15625 -0.5q-0.15625 -0.171875 -0.375 -0.171875q-0.34375 0 -0.703125 0.296875q-0.234375 0.0625 -0.703125 0.53125q-0.46875 0.453125 -0.8125 0.90625q-0.328125 0.4375 -0.203125 0.5q-0.046875 0.078125 0.234375 0.109375q0.28125 0.03125 0.484375 0.03125z" fill-rule="nonzero"/><path fill="#000000" fill-opacity="0.0" d="m128.87234 40.950592l507.62204 0l0 59.2126l-507.62204 0z" fill-rule="evenodd"/><path fill="#000000" d="m142.85672 62.474968q-0.15625 -0.171875 -0.28125 -0.578125q-0.125 -0.40625 0 -0.40625q0.1875 -0.015625 0.4375 -0.40625q0.265625 -0.40625 0.234375 -0.671875q0 -0.09375 0.0625 -0.171875q0.078125 -0.09375 0.171875 -0.109375q0.203125 -0.125 0.34375 -0.125q0.40625 0 0.75 0.578125q0.140625 0.3125 0.140625 0.546875q0 0.21875 -0.125 0.453125q-0.125 0.21875 -0.4375 0.578125q-0.40625 0.5625 -0.765625 0.5625q-0.234375 0 -0.53125 -0.25zm-2.328125 9.75q-0.328125 -0.34375 -0.328125 -0.96875q0 -0.328125 0.125 -0.5625q0 -0.125 0.046875 -0.296875q0.046875 -0.171875 0.046875 -0.21875q-0.03125 -0.140625 0.1875 -0.78125q0.4375 -0.96875 1.15625 -3.390625q0 -0.125 0.09375 -0.203125q0.09375 -0.078125 0.28125 -0.109375q0.203125 -0.046875 0.265625 -0.046875q0.15625 0 0.25 0.109375q0.109375 0.109375 0.3125 0.390625q0.140625 0.140625 0.140625 0.4375q0 0.453125 -0.3125 1.109375q-0.3125 0.6875 -0.40625 1.1875q-0.296875 0.65625 -0.453125 1.203125q-0.046875 0.140625 -0.15625 0.578125q-0.09375 0.4375 -0.265625 0.703125q-0.140625 0.671875 -0.265625 0.9375q-0.109375 0.25 -0.25 0.25q-0.171875 0 -0.46875 -0.328125zm5.6911163 0.859375q-0.421875 -0.171875 -0.84375 -0.484375q-0.40625 -0.328125 -0.546875 -0.5625q0 -0.0625 0 -0.171875q0 -0.125 0.0625 -0.15625q0.078125 -0.03125 0.28125 -0.03125q0.40625 0 1.296875 0.09375q0.515625 0 1.1875 -0.125q0.671875 -0.140625 0.75 -0.3125q0.078125 0 0.078125 -0.03125q0 -0.046875 -0.203125 -0.234375q-0.046875 0 -0.21875 -0.078125q-0.15625 -0.09375 -0.203125 -0.09375q0 -0.09375 -0.21875 -0.25q-0.21875 -0.15625 -0.484375 -0.265625q-0.6875 -0.578125 -0.984375 -0.859375q-0.28125 -0.28125 -0.21875 -0.390625l0 -0.125q-0.15625 0 -0.359375 -0.46875q-0.203125 -0.46875 -0.203125 -0.875q0 -0.4375 0.359375 -1.203125q0.375 -0.765625 0.859375 -1.25q0.671875 -0.625 1.734375 -1.3125q1.078125 -0.703125 1.703125 -0.890625q0.40625 -0.171875 0.8125 -0.171875q0.375 0 0.640625 0.171875q0.3125 0.1875 0.609375 0.546875q0.3125 0.359375 0.40625 0.65625q0 0.53125 -0.109375 1.03125q-0.109375 0.484375 -0.328125 0.484375q-0.015625 0 -0.078125 0.03125q-0.046875 0.015625 -0.046875 0.109375q0 0.09375 -0.09375 0.25q-0.09375 0.15625 -0.265625 0.296875q-0.515625 0.390625 -0.859375 0.390625q-0.265625 0 -0.328125 -0.265625q-0.0625 -0.046875 -0.109375 -0.140625q-0.046875 -0.109375 -0.109375 -0.109375q-0.03125 0 -0.09375 -0.078125q-0.046875 -0.078125 -0.046875 -0.234375q0 -0.0625 0.046875 -0.140625q0.0625 -0.09375 0.09375 -0.109375q0.140625 0 0.46875 -0.5625q0.34375 -0.578125 0.34375 -0.765625q0 -0.140625 -0.046875 -0.15625q-0.03125 -0.03125 -0.21875 -0.03125q-1.875 0.84375 -2.328125 1.265625q-0.078125 0.140625 -0.109375 0.203125q-0.03125 0.046875 -0.125 0.046875q0 -0.21875 -1.28125 1.625q-0.046875 0.046875 -0.109375 0.296875q-0.046875 0.234375 -0.046875 0.40625q-0.0625 0.1875 -0.0625 0.203125q0 0.109375 0.078125 0.203125q0.09375 0.09375 0.234375 0.203125q0.15625 0.109375 0.296875 0.21875q1.25 0.9375 1.734375 1.40625q0.5 0.46875 0.59375 0.78125q0.3125 0.484375 0.3125 0.859375q0 0.296875 -0.21875 0.515625q-0.21875 0.203125 -0.640625 0.40625q-0.265625 0.109375 -0.890625 0.1875q-0.625 0.09375 -1.234375 0.09375q-0.328125 0 -0.71875 -0.046875z" fill-rule="nonzero"/><path fill="#000000" fill-opacity="0.0" d="m75.85889 13.787231l507.62207 0l0 59.2126l-507.62207 0z" fill-rule="evenodd"/><path fill="#000000" d="m89.15576 45.655357q-0.390625 -0.0625 -0.78125 -0.5q-0.390625 -0.453125 -0.515625 -0.84375q0 -0.046875 -0.046875 -0.109375q-0.046875 -0.0625 -0.078125 -0.078125q-0.09375 -0.078125 -0.09375 -0.796875q0 -0.578125 0.0625 -1.1875q0.0625 -0.625 0.15625 -1.015625l0.4375 -1.265625l0.328125 -0.96875l0.65625 -1.390625l-0.96875 -0.265625q-0.171875 -0.015625 -0.28125 -0.15625q-0.09375 -0.15625 -0.09375 -0.28125q0 -0.1875 0.203125 -0.453125q0.203125 -0.28125 0.3125 -0.28125q0.078125 0.015625 0.390625 0.015625q0.71875 0 1.078125 -0.0625q0.234375 -0.09375 0.34375 -0.390625q0.09375 -0.1875 0.21875 -0.46875q0.140625 -0.296875 0.25 -0.53125q0.078125 -0.15625 0.234375 -0.453125q0.15625 -0.296875 0.390625 -0.6875q0.046875 -0.0625 0.21875 -0.328125q0.171875 -0.28125 0.40625 -0.484375q0.171875 -0.15625 0.40625 -0.15625q0.25 0 0.625 0.296875q0.046875 0.078125 0.125 0.203125q0.09375 0.109375 0.09375 0.21875q0 0.09375 -0.1875 0.40625q-0.140625 0.28125 -0.28125 0.515625q-0.125 0.21875 -0.21875 0.390625q-0.296875 0.484375 -0.421875 0.71875q-0.234375 0.3125 -0.234375 0.484375q0 0.171875 0.3125 0.171875q0.34375 0 1.125 -0.15625q0.34375 -0.046875 0.453125 -0.046875q0.84375 0 0.921875 0.703125q0.015625 0.140625 0.015625 0.328125q0 0.34375 -0.234375 0.421875q-0.21875 0.0625 -1.015625 0.0625q-0.765625 0.125 -1.578125 0.125q-0.140625 0 -0.328125 0.015625q-0.171875 0 -0.359375 0.046875q-0.203125 0.046875 -0.296875 0.15625q-0.078125 0.09375 -0.171875 0.3125q-0.0625 0.0625 -0.328125 0.546875q-0.34375 0.6875 -0.4375 0.84375q-0.640625 1.921875 -0.953125 3.9375q-0.046875 0.375 -0.046875 0.46875q0 0.359375 0.234375 0.515625q0.234375 0.140625 0.8125 0.140625q0.8125 0 1.421875 -0.171875q0.71875 -0.3125 1.078125 -0.53125q0.21875 -0.109375 0.390625 -0.21875q0.1875 -0.109375 0.25 -0.15625q0.078125 -0.15625 0.171875 -0.15625q0.1875 0 0.34375 0.390625q0 0.390625 -0.171875 0.671875q-0.171875 0.28125 -0.84375 0.671875q-1.390625 0.890625 -2.78125 0.890625q-0.390625 0 -0.71875 -0.078125zm13.60022 -0.578125q-0.359375 0.203125 -0.765625 0.203125q-0.59375 0 -0.96875 -0.53125q-0.375 -0.53125 -0.375 -1.421875q0 -0.40625 0.171875 -1.34375q0.171875 -0.953125 0.390625 -1.578125q0.015625 -0.046875 0.0625 -0.1875q0.046875 -0.15625 0.03125 -0.203125q0 -0.0625 -0.046875 -0.0625q-0.125 0 -0.4375 0.3125q-0.671875 0.578125 -1.4375 1.453125q-0.765625 0.875 -1.28125 1.6875q-0.5 0.796875 -0.5 1.109375q0 0.25 -0.203125 0.40625q-0.203125 0.140625 -0.46875 0.140625q-0.171875 0 -0.3125 -0.078125q-0.359375 -0.21875 -0.5 -0.46875q-0.125 -0.265625 -0.125 -0.78125q0 -0.40625 0.03125 -0.640625q0.09375 -1.65625 0.34375 -2.90625q0.25 -1.265625 0.96875 -3.59375q0.03125 -0.078125 0.453125 -1.234375q0.75 -2.109375 0.84375 -2.296875q0.171875 -0.171875 0.484375 -1.046875q0.328125 -0.875 0.328125 -1.0625q0 -0.359375 0.25 -0.609375l0.234375 -0.234375q0.21875 0 0.5 0.1875q0.296875 0.171875 0.359375 0.40625q0.171875 0.3125 0.171875 0.671875q0 0.34375 -0.203125 0.84375q-0.203125 0.484375 -0.6875 1.421875q-0.6875 1.390625 -1.296875 3.1875q-0.25 0.765625 -0.71875 2.390625q-0.46875 1.625 -0.46875 1.875q0 0.171875 0.15625 0.171875q0.203125 0 0.421875 -0.28125q0.09375 -0.203125 0.90625 -0.9375q0.09375 -0.09375 1.078125 -1.0q0.984375 -0.90625 1.421875 -0.90625q0.28125 0 0.546875 0.21875q0.28125 0.21875 0.390625 0.515625q0.09375 0.09375 0.140625 0.1875q0.046875 0.09375 0.09375 0.140625q0.046875 0.046875 0.046875 0.28125q0 0.84375 -0.53125 2.4375q-0.40625 1.578125 -0.40625 1.890625q0 0.21875 0.125 0.21875q0.0625 -0.046875 0.28125 -0.171875q0.21875 -0.125 0.5 -0.28125q0.828125 -0.5625 1.453125 -0.5625q0.28125 0 0.28125 0.203125q0 0.046875 -0.078125 0.171875q-0.0625 0.109375 -0.0625 0.1875l0 0.109375q0 0.125 -0.65625 0.734375q-0.640625 0.59375 -0.9375 0.65625zm7.5678406 -0.09375q-0.59375 0.53125 -1.4375 0.53125q-0.609375 0 -1.15625 -0.28125q-0.53125 -0.296875 -0.890625 -0.796875q-0.3125 -0.390625 -0.453125 -0.859375q-0.140625 -0.484375 -0.140625 -1.1875q0 -0.234375 0.046875 -0.953125q0.0625 -0.890625 0.578125 -1.84375q0.53125 -0.96875 1.296875 -1.71875q0.765625 -0.765625 1.5 -1.046875q0.390625 -0.234375 0.703125 -0.234375q0.171875 0 0.328125 0.03125q0.171875 0.015625 0.375 0.03125q0.515625 0.078125 0.796875 0.21875q0.28125 0.125 0.46875 0.390625q0.59375 0.59375 0.59375 1.390625q-0.09375 0.578125 -0.75 1.328125q-0.640625 0.734375 -1.546875 1.1875q-0.4375 0.140625 -0.984375 0.140625q-0.75 0 -1.203125 -0.3125q-0.21875 -0.0625 -0.328125 -0.0625q-0.21875 0 -0.328125 0.296875q-0.109375 0.28125 -0.203125 1.046875q-0.03125 0.15625 -0.03125 0.46875q0 1.234375 0.828125 1.34375q0.546875 0.125 0.78125 0.125q0.296875 0 0.65625 -0.1875l0.453125 -0.265625q0.140625 -0.078125 0.25 -0.1875q0.125 -0.125 0.234375 -0.21875q0.046875 -0.046875 0.140625 -0.15625q0.09375 -0.109375 0.171875 -0.140625q0.09375 -0.046875 0.15625 -0.046875q0.09375 0 0.21875 0.109375q0.125 0.109375 0.1875 0.15625q0.21875 0 0.09375 0.3125q-0.109375 0.296875 -0.515625 0.6875q-0.390625 0.390625 -0.890625 0.703125zm-0.03125 -5.078125q0.421875 -0.171875 0.828125 -0.59375q0.421875 -0.4375 0.421875 -0.734375q0 -0.28125 -0.21875 -0.46875q-0.203125 -0.203125 -0.59375 -0.203125q-0.28125 0 -0.4375 0.046875q-0.328125 0.09375 -0.78125 0.515625q-0.453125 0.421875 -0.796875 0.859375q-0.328125 0.421875 -0.265625 0.5q0.125 0.21875 0.9375 0.21875q0.546875 0 0.90625 -0.140625z" fill-rule="nonzero"/><path fill="#000000" fill-opacity="0.0" d="m14.062992 76.82415c10.598511 1.9964981 43.691772 12.239716 63.59106 11.978996c19.899284 -0.26071167 46.503883 -11.286087 55.804657 -13.543304" fill-rule="evenodd"/><path stroke="#274e13" stroke-width="2.0" stroke-linejoin="round" stroke-linecap="butt" d="m25.018353 79.41066l0.6536503 0.16414642c4.9038353 1.2369843 10.655954 2.6964035 16.698729 4.0852966c12.085537 2.7777786 25.333675 5.2733994 35.28332 5.1430435c9.949646 -0.1303482 21.575607 -2.9518738 31.87677 -6.0229645c2.5752792 -0.76776886 5.0677795 -1.5511398 7.430565 -2.3119583c1.1814041 -0.3804016 2.3303833 -0.7551727 3.4410706 -1.1195374l2.303688 -0.75832367" fill-rule="evenodd"/><path fill="#274e13" stroke="#274e13" stroke-width="2.0" stroke-linecap="butt" d="m25.018353 79.41066l-3.863987 -4.3344116l-5.394576 2.1485062l3.863988 4.3344116z" fill-rule="evenodd"/><path fill="#274e13" stroke="#274e13" stroke-width="2.0" stroke-linecap="butt" d="m122.70615 78.59036l5.529022 1.7741165l3.5581512 -4.5887985l-5.5290146 -1.7741089z" fill-rule="evenodd"/></g></svg>